<?xml version="1.0" encoding="iso-8859-1"?>
<!-- Uploaded to: SVG Repo, www.svgrepo.com, Generator: SVG Repo Mixer Tools -->
<svg fill="#000000" height="800px" width="800px" version="1.1" id="Layer_1" xmlns="http://www.w3.org/2000/svg" xmlns:xlink="http://www.w3.org/1999/xlink" 
	 viewBox="0 0 511.991 511.991" xml:space="preserve">
<g>
	<g>
		<path d="M476.873,222.208c-5.111-5.111-12.186-9.156-20.352-12.109c20.079-26.274,26.76-53.897,14.199-66.458
			c-12.57-12.57-40.192-5.879-66.466,14.208c-2.944-8.175-6.989-15.258-12.092-20.369c-6.033-6.033-13.244-9.54-20.992-9.54
			c-21.205,0-38.4,26.283-38.4,58.701c0,20.574,6.921,38.673,17.408,49.152c1.579,1.579,3.379,2.586,5.154,3.678
			c-58.121,41.139-92.459,84.762-112.111,129.195V149.188c2.381,0.538,4.685,1.22,7.296,1.22c14.822,0,32.521-7.902,47.07-22.451
			c22.921-22.921,29.346-53.666,14.353-68.659c-5.495-5.478-13.082-8.098-21.615-8.098c-7.228,0-15.095,2.142-22.955,5.837
			C262.993,24.26,248.188,0,230.421,0s-32.58,24.269-36.958,57.045c-7.868-3.695-15.735-5.845-22.955-5.845
			c-8.533,0-16.111,2.62-21.589,8.098c-14.993,14.993-8.567,45.739,14.353,68.659c14.549,14.549,32.247,22.451,47.07,22.451
			c2.603,0,4.907-0.683,7.27-1.212v204.749c-14.097-35.959-34.261-65.519-60.348-89.301c1.562-0.973,3.157-1.852,4.548-3.243
			c10.479-10.479,17.408-28.587,17.408-49.152c0-32.418-17.195-58.701-38.4-58.701c-7.748,0-14.959,3.507-20.992,9.54
			c-5.111,5.111-9.156,12.186-12.109,20.361c-26.274-20.079-53.897-26.761-66.458-14.199c-12.57,12.57-5.871,40.192,14.208,66.466
			c-8.175,2.944-15.258,6.989-20.361,12.092c-6.033,6.033-9.54,13.244-9.54,20.992c0,21.205,26.283,38.4,58.701,38.4
			c20.574,0,38.673-6.929,49.152-17.408c1.937-1.937,3.132-4.164,4.514-6.323c0.555-0.102,1.024-0.341,1.562-0.469
			c30.592,27.708,52.113,64.794,64.623,112.222c-14.063-15.104-34.765-25.6-65.724-25.6c-17.237,0-37.581,3.2-61.568,10.573
			c42.47,6.519,31.676,38.281,61.312,56.482c38.315,23.526,64.649,47.061,79.027,61.397c0.102,4.693,0.452,9.088,0.452,13.918h25.6
			c0-7.714,0.196-15.283,0.503-22.784c12.407-19.695,33.408-49.51,63.505-79.616c24.747-24.747,15.735-67.934,51.2-76.8
			c-20.036-10.018-37.018-14.37-51.413-14.37c-0.819,0-1.468,0.265-2.27,0.299c17.758-20.907,40.38-41.165,68.966-60.954
			c0.119,0.026,0.222,0.085,0.35,0.102c1.382,2.159,2.577,4.386,4.506,6.323c10.479,10.479,28.587,17.408,49.152,17.408
			c32.418,0,58.701-17.195,58.701-38.4C486.421,235.452,482.906,228.241,476.873,222.208z M268.361,85.837
			c8.653-6.443,16.87-9.037,21.965-9.037c2.27,0,3.328,0.469,3.49,0.597c1.638,2.074,1.067,17.041-14.353,32.461
			c-6.306,6.306-12.646,10.095-18.219,12.348C265.092,111.77,267.558,99.362,268.361,85.837z M181.372,109.858
			c-15.411-15.411-15.991-30.379-14.353-32.452c0.162-0.128,1.22-0.606,3.49-0.606c5.094,0,13.312,2.594,21.965,9.037
			c0.802,13.525,3.268,25.933,7.117,36.361C194.018,119.945,187.678,116.164,181.372,109.858z M84.254,281.6
			c-21.803,0-32.794-10.18-33.101-12.8c0.026-0.205,0.444-1.289,2.048-2.893c3.601-3.601,11.247-7.578,21.922-9.139
			c10.129,8.994,20.651,16.026,30.746,20.676C100.331,279.791,93.18,281.6,84.254,281.6z M86.515,232.593
			c-18.782-18.782-25.481-36.54-26.095-44.194c7.654,0.614,25.421,7.313,44.194,26.095c18.782,18.782,25.481,36.54,26.095,44.194
			C123.055,258.074,105.289,251.375,86.515,232.593z M149.466,233.847c-4.651-10.095-11.682-20.617-20.676-30.754
			c1.562-10.658,5.53-18.304,9.139-21.914c1.604-1.604,2.688-2.022,2.893-2.048c2.628,0.307,12.8,11.298,12.8,33.101
			C153.621,221.158,151.812,228.309,149.466,233.847z M151.531,414.874c-6.17-3.789-8.9-8.533-13.602-17.289
			c-0.41-0.759-0.828-1.545-1.263-2.338c0.58-0.009,1.152-0.009,1.715-0.009c21.871,0,37.803,6.204,48.7,18.953
			c8.576,10.027,13.577,23.518,16.35,37.325C189.333,440.09,172.036,427.46,151.531,414.874z M230.421,126.507
			c-4.975-5.845-12.8-23.142-12.8-49.707c0-26.556,7.817-43.853,12.8-49.707c4.975,5.854,12.8,23.142,12.8,49.707
			C243.221,103.356,235.396,120.653,230.421,126.507z M307.008,344.021c0.922,0.009,1.86,0.034,2.816,0.085
			c-3.465,7.27-5.862,14.532-7.91,20.762c-3.644,11.068-6.793,20.617-12.791,26.624c-12.032,12.032-22.716,24.047-32.077,35.482
			c3.379-28.382,10.539-56.218,24.499-71.646C288.619,347.511,296.478,344.021,307.008,344.021z M362.509,208.256
			c-2.347-5.538-4.156-12.689-4.156-21.615c0-21.803,10.18-32.794,12.8-33.101c0.205,0.026,1.289,0.444,2.893,2.048
			c3.601,3.601,7.578,11.247,9.139,21.922C374.191,187.639,367.16,198.161,362.509,208.256z M407.36,188.894
			c18.782-18.782,36.54-25.481,44.194-26.095c-0.614,7.654-7.313,25.421-26.095,44.194c-18.782,18.773-36.54,25.481-44.194,26.095
			C381.879,225.434,388.578,207.676,407.36,188.894z M427.721,256c-8.926,0-16.077-1.809-21.615-4.156
			c10.095-4.651,20.617-11.682,30.746-20.676c10.675,1.562,18.321,5.538,21.922,9.139c1.604,1.604,2.022,2.688,2.048,2.893
			C460.506,245.82,449.515,256,427.721,256z"/>
	</g>
</g>
</svg>